<svg width="96" height="96" fill="none" xmlns="http://www.w3.org/2000/svg"><g clip-path="url(#clip0)"><path d="M57.636 56.411A19.265 19.265 0 0066.17 45.95c.066.001.132.005.198.005 4.041 0 7.33-3.288 7.33-7.33 0-3.772-2.865-6.887-6.533-7.285v-3.178c1.344-1.355 4.62-5.515 3.954-13.416-.27-3.205-1.453-5.703-3.517-7.425-2.647-2.208-5.976-2.443-7.393-2.44-1.747-1.632-8.05-6.708-16.568-4.192a27.234 27.234 0 00-4.816 1.944 1.409 1.409 0 101.292 2.504 24.43 24.43 0 014.322-1.746C52.602.98 58.382 7.015 58.622 7.27c.297.32.73.484 1.163.445.035-.004 3.558-.292 6.028 1.783 1.454 1.222 2.295 3.067 2.498 5.483.51 6.063-1.589 9.41-2.73 10.751-2.81-2.181-5.35-6.702-5.378-6.752-.491-.964-2.006-.948-2.479.03-2.06 3.931-5.848 5.493-8.014 6.085-.232-3.013-2.153-5.403-2.252-5.525-.522-.67-1.62-.686-2.158-.029-5.936 6.88-13.683 6.889-14.545 6.869a1.934 1.934 0 01-.517-.085c-2.452-.75-4.882-2.906-6.47-4.556 5.264-.906 7.195-4.544 7.287-4.724.504-.91-.261-2.116-1.296-2.051-2.284.07-3.9-.772-4.937-2.572-.26-.45-.45-.91-.59-1.329 5.052.25 8.15-1.328 11.106-3.124a1.409 1.409 0 10-1.463-2.408c-2.984 1.813-5.889 3.257-11.236 2.56-.852-.133-1.666.632-1.588 1.49.006.085.152 2.113 1.27 4.114.802 1.434 2.209 3.057 4.617 3.75-1.587 1.185-3.624 1.75-6.059 1.673-1.148-.072-1.891 1.371-1.163 2.263.18.238 4.335 5.628 9.12 7.41v2.518c-3.669.399-6.533 3.514-6.533 7.286 0 4.041 3.288 7.33 7.329 7.33.066 0 .132-.004.198-.006a19.263 19.263 0 008.534 10.463c-11.358 1.54-20.14 11.3-20.14 23.072v2.927a1.409 1.409 0 002.817 0v-2.927a20.398 20.398 0 015.711-14.168l18.12 19.938c1.59 1.828 4.666 1.828 6.256 0l5.922-6.516a1.409 1.409 0 00-2.085-1.895l-5.922 6.516c-.53.611-1.557.611-2.085 0l-18.12-19.937a20.522 20.522 0 012.606-1.754l15.514 17.07c.53.61 1.555.61 2.085 0l15.513-17.07a20.564 20.564 0 012.606 1.754l-8.405 9.248a1.409 1.409 0 102.085 1.895l8.406-9.249a20.397 20.397 0 015.71 14.169v13.698H66.57V82.189a1.409 1.409 0 10-2.818 0v10.994H32.248V82.189a1.409 1.409 0 10-2.818 0v10.994h-8.389v-5.136a1.409 1.409 0 00-2.817 0v6.545c0 .778.63 1.409 1.408 1.409h56.736a1.41 1.41 0 001.409-1.41V79.486c0-11.774-8.783-21.533-20.14-23.074zm-7.471 6.147h-4.33l-.8-3.542h5.93l-.8 3.542zm20.714-23.934a4.517 4.517 0 01-3.992 4.481c.182-1.058.278-2.144.278-3.253v-5.667a4.518 4.518 0 013.714 4.44zm-45.759 0a4.518 4.518 0 013.715-4.44v5.668c0 1.108.096 2.195.278 3.253a4.517 4.517 0 01-3.992-4.48zm6.533 1.227V29.208c2.499-.129 8.974-1.009 14.492-6.448.498.997.972 2.398.684 3.79a1.41 1.41 0 001.513 1.688c.297-.028 6.634-.69 10.612-5.924 1.207 1.82 3.191 4.461 5.393 6.002v11.537c0 9.013-7.333 16.346-16.347 16.346-9.014 0-16.347-7.333-16.347-16.346zm9.856 19.165h.638l1.124 4.98-.987 5.41-8.181-9.003a20.365 20.365 0 017.406-1.387zM48 75.695l-3.33-3.664 1.214-6.656h4.232l1.214 6.656L48 75.695zm5.716-6.29l-.987-5.409 1.124-4.98h.638c2.61 0 5.108.492 7.406 1.387l-8.181 9.003z" fill="url(#paint0_linear)"/><path d="M48 48.896c5 0 6.51-3.513 6.576-3.672v-.002c.4-.895-.309-1.974-1.295-1.952-.586 0-1.088.358-1.3.868-.07.15-.983 1.946-3.981 1.946-2.997 0-3.91-1.795-3.982-1.946a1.406 1.406 0 00-1.299-.868c-.986-.022-1.694 1.058-1.296 1.952v.002c.066.16 1.578 3.672 6.577 3.672z" fill="url(#paint1_linear)"/><path d="M39.412 33.01c-.776 0-1.406.629-1.406 1.406v3.973a1.406 1.406 0 002.813 0v-3.974c0-.776-.63-1.406-1.407-1.406z" fill="url(#paint2_linear)"/><path d="M56.588 39.795c.776 0 1.406-.63 1.406-1.406v-3.973a1.406 1.406 0 00-2.813 0v3.973c0 .776.63 1.406 1.407 1.406z" fill="url(#paint3_linear)"/></g><defs><linearGradient id="paint0_linear" x1="48" y1="0" x2="48" y2="96.001" gradientUnits="userSpaceOnUse"><stop stop-color="#00FEFF"/><stop offset="1" stop-color="#933FFF" stop-opacity=".79"/></linearGradient><linearGradient id="paint1_linear" x1="48" y1="43.269" x2="48" y2="48.896" gradientUnits="userSpaceOnUse"><stop stop-color="#00FEFF"/><stop offset="1" stop-color="#933FFF" stop-opacity=".79"/></linearGradient><linearGradient id="paint2_linear" x1="39.412" y1="33.009" x2="39.412" y2="39.795" gradientUnits="userSpaceOnUse"><stop stop-color="#00FEFF"/><stop offset="1" stop-color="#933FFF" stop-opacity=".79"/></linearGradient><linearGradient id="paint3_linear" x1="56.588" y1="33.009" x2="56.588" y2="39.795" gradientUnits="userSpaceOnUse"><stop stop-color="#00FEFF"/><stop offset="1" stop-color="#933FFF" stop-opacity=".79"/></linearGradient><clipPath id="clip0"><path fill="#fff" d="M0 0h96v96H0z"/></clipPath></defs></svg>