<svg width="96" height="96" fill="none" xmlns="http://www.w3.org/2000/svg"><path d="M82.5 89.36c-4.277-21.477-4.092-20.563-4.113-20.651-.56-2.715-2.138-4.969-4.694-6.38-1.195-.663-1.885-.766-2.488-.963l-10.508-3.65-3.501-2.401V52.59c5.12-3.042 8.38-8.281 8.977-13.95 4.28.197 7.262-3.893 5.468-7.473V19.703c0-8.29-4.509-11.174-5.887-11.862-6.74-8.046-19.326-10.11-28.867-5.214l-.018.01c-.164.096-2.13 1.005-4.551 3.03a1.406 1.406 0 001.84 2.127C43.501-.052 57.37 1.964 63.782 9.87c.157.195.35.338.584.426.182.073 4.461 1.874 4.461 9.407v8.875c-.78-.33-1.635-.5-2.547-.474v-4.6a2.249 2.249 0 00-2.044-2.243c-2.364-.229-3.688-1.768-4.383-3.02a2.822 2.822 0 00-4.306-.778c-6.27 5.36-13.49 5.632-18.442 4.918-3.741-.54-7.22 2.008-7.826 5.725-.91-.04-1.81.121-2.637.472.005-4.842-.553-10.11 3.406-16.145a1.406 1.406 0 10-2.354-1.539c-5.389 8.257-3.46 15.656-3.865 20.272-1.793 3.58 1.186 7.671 5.468 7.473.699 6.677 4.812 10.518 4.91 10.686.73.7 2.041 2.162 4.597 3.57v2.42l-3.502 2.4C21.6 62.477 22.99 61.899 21.877 62.58c-2.104 1.296-3.563 3.278-4.17 5.72-.12.482.078-.43-4.207 21.06-.086.434-.131 1.28-.054 1.997.318 2.951 2.41 4.644 5.742 4.644h38.64a1.406 1.406 0 100-2.813h-28.75V80.303a1.406 1.406 0 10-2.813 0v12.885h-7.077c-2.205 0-3.24-.946-2.921-3.32 3.848-18.804 3.856-20.321 4.485-21.862.11-.153.716-2.323 3.69-3.585.307-.126.115-.042 1.172-.364.066-.019-.257.09 4.793-1.663l3.369 6.219a1.406 1.406 0 102.473-1.34l-3.15-5.814 2.154-.748 11.23 20.73c.617 1.141 2.187 1.198 2.91.2.131-.18-.618 1.164 11.336-20.936l2.154.748L51.499 82.51c-1.501 2.776-5.49 2.777-6.994.003l-5.13-9.47a1.406 1.406 0 10-2.473 1.34l5.13 9.47c2.567 4.737 9.38 4.733 11.94-.005l11.602-21.46c5.04 1.75 4.744 1.65 4.809 1.668.991.302.881.244 1.173.363 1.075.459 1.717.987 1.698.973 1.103.89 1.863 1.917 2.27 3.43.066.24 4.24 20.938 4.258 21.637.042 1.765-.72 2.728-2.968 2.728h-7.078V80.303a1.406 1.406 0 10-2.813 0v12.885h-2.532a1.406 1.406 0 100 2.812h12.422c3.331 0 5.424-1.692 5.741-4.642.077-.703.032-1.568-.054-1.999zM66.28 30.916c1.623-.086 3.074 1.007 3.074 2.456 0 1.463-1.467 2.54-3.073 2.456v-4.912zM29.19 35.83c-1.621.086-3.073-1.007-3.073-2.456 0-1.463 1.467-2.54 3.073-2.456v4.912zm7.514-10.664c5.527.797 13.6.48 20.67-5.564l.021.006c1.359 2.446 3.502 3.99 6.073 4.39v4.98l-1.604.947a3.654 3.654 0 00-3.004-1.578h-6.435a3.66 3.66 0 00-3.374 2.25h-2.63a3.661 3.661 0 00-3.375-2.25h-6.435a3.653 3.653 0 00-3.004 1.578l-1.597-.943c.138-2.404 2.311-4.16 4.694-3.816zm23 6.837v2.8c0 1.22-.993 2.213-2.213 2.213h-3.698a2.215 2.215 0 01-2.212-2.212v-2.8c0-.458.386-.845.843-.845h6.436c.457 0 .843.387.843.844zm-15.814 0v2.8c0 1.22-.992 2.213-2.212 2.213H37.98a2.215 2.215 0 01-2.213-2.212v-2.8c0-.458.387-.845.844-.845h6.435c.458 0 .844.387.844.844zm-8.095 14.882c-4.551-5.305-3.674-10.456-3.792-14.641l.952.562v1.998a5.03 5.03 0 005.025 5.024h3.698a5.03 5.03 0 005.025-5.024v-1.395h2.066v1.395a5.03 5.03 0 005.024 5.024h3.699a5.03 5.03 0 005.025-5.024v-1.998l.952-.562v4.397c0 8.364-6.62 15.631-15.733 15.731l-.19-.001c-2.43-.025-4.298-.648-4.11-.595-2.759-.765-5.39-2.345-7.641-4.891zM48 62.616l-6.382-7.102V54.15a18.704 18.704 0 008.813.84 18.67 18.67 0 002.14-.444c.119-.038.798-.2 1.812-.59v1.558L48 62.616zm1.584 5.012l-.621 1.28h-1.925l-.621-1.28L48 66.464l1.584 1.164zm-5.29 3.869l-.895-1.653.713-.524.533 1.098-.35 1.079zm-2.237-4.156l-4.273-7.904 2.21-1.524 5.923 6.592-3.86 2.836zM48 78.337l-1.857-3.429 1.037-3.189h1.642l1.035 3.184L48 78.337zm3.703-6.85l-.347-1.07.533-1.097.705.518-.89 1.649zm2.242-4.146l-3.86-2.836 5.923-6.592 2.21 1.524-4.273 7.904z" fill="url(#paint0_linear)"/><defs><linearGradient id="paint0_linear" x1="48" y1="0" x2="48" y2="96" gradientUnits="userSpaceOnUse"><stop stop-color="#00FEFF"/><stop offset="1" stop-color="#933FFF" stop-opacity=".79"/></linearGradient></defs></svg>