<svg width="96" height="96" fill="none" xmlns="http://www.w3.org/2000/svg"><path fill="url(#paint0_linear)" d="M0 0h96v96H0z"/><path d="M15.178 38.208A1.5 1.5 0 0016.5 39h.293a34.959 34.959 0 00-.293 4.5 33.719 33.719 0 008.865 22.925A6.726 6.726 0 0021 72.715V91.5a1.5 1.5 0 001.5 1.5h51a1.5 1.5 0 001.5-1.5V72.715a6.726 6.726 0 00-4.365-6.29A33.719 33.719 0 0079.5 43.5c0-1.505-.098-3.008-.293-4.5h.293a1.5 1.5 0 00.795-.228c4.294-2.684 6.062-5.473 5.254-8.29-.684-2.385-3.3-4.376-7.584-5.785a28.479 28.479 0 00-22.59-15.55 7.498 7.498 0 00-14.75 0 28.38 28.38 0 00-19.291 10.438l2.332 1.887A25.409 25.409 0 0143.5 12h9a25.484 25.484 0 0121.408 11.642C70.259 22.9 65.976 22.5 61.5 22.5c-8.345 0-18.518 1.636-27.909 4.488-3.49 1.06-10.788 3.52-15.31 6.754a25.42 25.42 0 013.13-8.991l-2.597-1.502A28.49 28.49 0 0015 37.5h.003c-.001.247.059.49.175.708zM48 6a4.508 4.508 0 014.242 3h-8.484A4.507 4.507 0 0148 6zM24 72.715A3.72 3.72 0 0127.715 69h.313a31.319 31.319 0 001.96 1.556A29.725 29.725 0 0024 78.806v-6.09zm39-.202V90h-3v-4.5h-3V90H39V76.415l3.214 5.357a1.5 1.5 0 002.486.128l3.3-4.4 3.3 4.4a1.5 1.5 0 001.2.6c.026 0 .052 0 .077-.002a1.5 1.5 0 001.21-.726L57 76.415V82.5h3v-8.49a30.759 30.759 0 003-1.497zm-10.639 5.802l-1.467-1.956a29.947 29.947 0 002.893-.42l-1.426 2.376zm-8.722 0l-1.425-2.375c.95.185 1.914.325 2.892.42l-1.467 1.955zM36 90h-3V72.513a30.759 30.759 0 003 1.497V90zm-6-15.033V90h-5.954A26.502 26.502 0 0130 74.967zM66 90V74.967A26.502 26.502 0 0171.954 90H66zm6-17.285v6.091a29.73 29.73 0 00-5.988-8.25A32.315 32.315 0 0067.972 69h.313A3.72 3.72 0 0172 72.715zM76.5 43.5c0 16.542-12.785 30-28.5 30s-28.5-13.458-28.5-30c0-1.506.107-3.01.32-4.5H40.5v3.75a.75.75 0 11-1.5 0V40.5h-3v2.25a3.75 3.75 0 007.5 0V39H57v3.75a.75.75 0 11-1.5 0V40.5h-3v2.25a3.75 3.75 0 007.5 0V39h16.18c.213 1.49.32 2.994.32 4.5zM34.462 29.859C43.584 27.089 53.438 25.5 61.5 25.5c12.206 0 20.347 2.954 21.166 5.81.493 1.721-2.12 3.716-3.605 4.69H20.27c2.997-2.068 8.038-4.272 14.192-6.141z" fill="url(#paint1_linear)"/><path d="M24.668 46.614l1.664 2.497a6.596 6.596 0 017.336 0l1.664-2.497a9.587 9.587 0 00-10.664 0z" fill="url(#paint2_linear)"/><path d="M62.332 49.248a6.596 6.596 0 017.336 0l1.664-2.496a9.586 9.586 0 00-10.664 0l1.664 2.496z" fill="url(#paint3_linear)"/><defs><linearGradient id="paint0_linear" x1="48" y1="0" x2="48" y2="96" gradientUnits="userSpaceOnUse"><stop stop-color="#fff"/><stop offset="1" stop-color="#fff" stop-opacity="0"/></linearGradient><linearGradient id="paint1_linear" x1="50.37" y1="3" x2="50.37" y2="93" gradientUnits="userSpaceOnUse"><stop stop-color="#00FEFF"/><stop offset="1" stop-color="#933FFF" stop-opacity=".79"/></linearGradient><linearGradient id="paint2_linear" x1="30" y1="44.995" x2="30" y2="49.111" gradientUnits="userSpaceOnUse"><stop stop-color="#00FEFF"/><stop offset="1" stop-color="#933FFF" stop-opacity=".79"/></linearGradient><linearGradient id="paint3_linear" x1="66" y1="45.132" x2="66" y2="49.248" gradientUnits="userSpaceOnUse"><stop stop-color="#00FEFF"/><stop offset="1" stop-color="#933FFF" stop-opacity=".79"/></linearGradient></defs></svg>