<svg width="131" height="55" fill="none" xmlns="http://www.w3.org/2000/svg"><path d="M1.86 24V6.888h11.112v2.796H3.348l1.8-2.28v16.08l-1.584-2.28h9.492V24H1.86zm2.532-7.32v-2.652h8.172v2.652H4.392zM15.965 24V12.048l2.592-.156.12 2.124h.276c.264-.384.588-.748.972-1.092a4.809 4.809 0 011.356-.852c.52-.224 1.112-.336 1.776-.336 1.224 0 2.136.36 2.736 1.08.608.712.912 1.768.912 3.168V24h-3.048v-7.08c0-.784-.136-1.376-.408-1.776-.264-.4-.744-.6-1.44-.6-.408 0-.784.084-1.128.252-.336.16-.644.38-.924.66-.272.272-.52.58-.744.924V24h-3.048zm17.944 4.896c-.896 0-1.648-.076-2.256-.228-.608-.152-1.092-.364-1.452-.636-.352-.264-.604-.564-.756-.9a2.374 2.374 0 01-.228-1.008c0-.536.128-.98.384-1.332.256-.344.552-.612.888-.804.344-.2.636-.34.876-.42v-.216a1.851 1.851 0 01-.48-.264 1.968 1.968 0 01-.516-.564c-.152-.248-.228-.56-.228-.936a1.887 1.887 0 01.6-1.416 2.91 2.91 0 01.828-.54v-.216a5.462 5.462 0 01-.768-.42 4.664 4.664 0 01-.84-.732 3.786 3.786 0 01-.66-1.08c-.176-.424-.264-.92-.264-1.488 0-.76.188-1.436.564-2.028.376-.592.932-1.06 1.668-1.404.736-.344 1.644-.516 2.724-.516.424 0 .796.024 1.116.072.32.04.652.084.996.132.344.04.772.06 1.284.06h3.42v2.112h-4.344l.816-1.344c.576.336.996.764 1.26 1.284.272.52.408 1.12.408 1.8 0 .8-.172 1.472-.516 2.016a3.838 3.838 0 01-1.38 1.32 7.085 7.085 0 01-1.992.732c-.72.16-1.252.304-1.596.432-.344.128-.516.312-.516.552 0 .176.072.312.216.408.144.088.372.152.684.192.32.032.732.048 1.236.048h.492c1.048 0 1.928.092 2.64.276.72.176 1.264.48 1.632.912.376.424.564 1.012.564 1.764 0 .784-.192 1.452-.576 2.004-.384.56-.9 1.012-1.548 1.356-.64.352-1.34.608-2.1.768-.76.168-1.52.252-2.28.252zm.36-2.268c.736 0 1.344-.096 1.824-.288.488-.184.852-.4 1.092-.648.248-.248.372-.464.372-.648a.792.792 0 00-.228-.564c-.152-.16-.432-.284-.84-.372-.4-.08-.984-.12-1.752-.12h-.396c-.368.016-.74.084-1.116.204-.368.12-.676.284-.924.492-.248.208-.372.444-.372.708 0 .152.044.304.132.456.088.152.224.284.408.396.184.12.424.212.72.276.304.072.664.108 1.08.108zm-.36-8.664c.224-.032.468-.084.732-.156a3.12 3.12 0 00.744-.336c.24-.144.432-.328.576-.552.152-.224.228-.492.228-.804 0-.44-.112-.8-.336-1.08a2.022 2.022 0 00-.852-.624 2.727 2.727 0 00-1.032-.204c-.36 0-.7.068-1.02.204-.32.136-.584.336-.792.6a1.504 1.504 0 00-.312.96c0 .376.096.7.288.972.2.272.456.496.768.672.312.168.648.284 1.008.348zM42.918 24V6.42l3.048-.288V24h-3.048zm6.458 0V12.048l3.048-.096V24h-3.048zm1.488-14.1c-.584 0-1.052-.144-1.404-.432-.352-.296-.528-.764-.528-1.404 0-.584.176-1.028.528-1.332.352-.312.828-.468 1.428-.468s1.072.16 1.416.48c.352.32.528.76.528 1.32 0 .64-.176 1.108-.528 1.404-.344.288-.824.432-1.44.432zm8.676 14.4c-.552 0-1.088-.036-1.608-.108a10.63 10.63 0 01-1.44-.3 7.61 7.61 0 01-1.176-.432l.204-2.688c.36.216.752.404 1.176.564.432.152.88.272 1.344.36.464.08.924.12 1.38.12.352 0 .672-.028.96-.084a1.27 1.27 0 00.684-.372c.176-.184.264-.456.264-.816a.79.79 0 00-.264-.612c-.168-.16-.448-.308-.84-.444a21.859 21.859 0 00-1.608-.468 7.659 7.659 0 01-1.764-.672 3.022 3.022 0 01-1.128-1.092c-.256-.448-.384-1.028-.384-1.74 0-1.2.384-2.128 1.152-2.784.768-.656 1.804-.984 3.108-.984.552 0 1.088.044 1.608.132.52.08.992.188 1.416.324.432.128.792.26 1.08.396l-.216 2.7a5.934 5.934 0 00-1.2-.576 8.276 8.276 0 00-1.248-.36c-.4-.08-.732-.12-.996-.12-.296 0-.564.04-.804.12a1.15 1.15 0 00-.576.372c-.136.176-.204.404-.204.684 0 .232.056.436.168.612.112.168.324.324.636.468.32.144.788.304 1.404.48.832.232 1.524.476 2.076.732.56.256.98.596 1.26 1.02.28.416.42.984.42 1.704 0 .768-.168 1.44-.504 2.016-.328.576-.852 1.028-1.572 1.356-.712.328-1.648.492-2.808.492zm7.401-.3V6.42l3.048-.288v7.692h.276c.24-.344.536-.676.888-.996.36-.32.776-.58 1.248-.78.48-.208 1.024-.312 1.632-.312 1.224 0 2.136.36 2.736 1.08.608.712.912 1.768.912 3.168V24h-3.048v-7.08c0-.784-.136-1.376-.408-1.776-.264-.4-.744-.6-1.44-.6-.408 0-.784.084-1.128.252-.336.16-.644.38-.924.66-.272.272-.52.58-.744.924V24h-3.048z" fill="url(#paint0_linear)"/><path d="M24.2 50.288c-1.48 0-2.792-.22-3.936-.66-1.136-.44-2.096-1.056-2.88-1.848a8 8 0 01-1.776-2.808c-.4-1.08-.6-2.26-.6-3.54 0-1.736.356-3.272 1.068-4.608a7.71 7.71 0 013.048-3.132c1.32-.76 2.896-1.14 4.728-1.14.6 0 1.184.04 1.752.12a11.93 11.93 0 011.608.312c.512.128.984.272 1.416.432.44.152.82.312 1.14.48l-.264 3.132a13.17 13.17 0 00-1.944-.912 9.886 9.886 0 00-1.812-.516 8.622 8.622 0 00-1.644-.168c-.808 0-1.556.132-2.244.396a4.908 4.908 0 00-1.788 1.164c-.504.512-.896 1.144-1.176 1.896-.28.744-.42 1.596-.42 2.556 0 .848.12 1.644.36 2.388.24.736.604 1.384 1.092 1.944.488.56 1.112 1 1.872 1.32.76.312 1.652.468 2.676.468.48 0 .944-.02 1.392-.06a9.921 9.921 0 001.308-.228c.424-.104.84-.232 1.248-.384.408-.16.816-.352 1.224-.576l.396 3.024c-.272.12-.62.236-1.044.348a18.02 18.02 0 01-1.404.312c-.52.088-1.068.156-1.644.204-.576.056-1.16.084-1.752.084zm2.688-.888v-8.16h3.156v8.1l-3.156.06zm9.155.876c-.672 0-1.272-.14-1.8-.42a3.163 3.163 0 01-1.26-1.212c-.304-.536-.456-1.18-.456-1.932 0-.664.116-1.224.348-1.68a3.19 3.19 0 01.912-1.128 4.482 4.482 0 011.26-.684c.464-.16.932-.276 1.404-.348l3.42-.504c.024-.56-.072-.992-.288-1.296-.208-.304-.508-.512-.9-.624a4.64 4.64 0 00-1.356-.18c-.272 0-.568.024-.888.072-.312.04-.644.104-.996.192-.344.088-.704.2-1.08.336-.376.128-.76.284-1.152.468l-.144-2.652a13.726 13.726 0 012.22-.636c.44-.096.896-.168 1.368-.216.48-.056.972-.084 1.476-.084.976 0 1.808.144 2.496.432a3.17 3.17 0 011.596 1.356c.368.616.552 1.42.552 2.412V50h-2.7l-.18-1.56h-.252a5.3 5.3 0 01-.84.864 4.826 4.826 0 01-1.2.696c-.456.184-.976.276-1.56.276zm1.104-2.388c.336 0 .668-.08.996-.24.328-.16.632-.384.912-.672a3.93 3.93 0 00.732-1.032V44.06a1.87 1.87 0 01-.42.204 7.65 7.65 0 01-.756.192c-.336.072-.808.164-1.416.276a2.467 2.467 0 00-.876.324 1.586 1.586 0 00-.54.588c-.128.24-.192.516-.192.828 0 .52.156.888.468 1.104.32.208.684.312 1.092.312zM45.856 50V38.048l2.591-.156.12 2.112h.276a6.95 6.95 0 01.948-1.08 4.56 4.56 0 011.309-.852c.495-.224 1.06-.336 1.691-.336.945 0 1.673.236 2.184.708.512.464.852 1.136 1.02 2.016l.205.048a8.487 8.487 0 01.131 1.476V50h-3.048v-7.08c0-.784-.127-1.376-.383-1.776-.248-.4-.7-.6-1.356-.6-.384 0-.736.084-1.056.252-.32.16-.612.38-.877.66-.255.28-.491.588-.707.924V50h-3.049zm14.795 0v-7.08c0-.784-.128-1.376-.384-1.776-.248-.4-.7-.6-1.356-.6-.392 0-.748.084-1.068.252-.32.16-.612.38-.876.66-.264.272-.5.58-.707.924l-.444-2.34h.276c.28-.392.611-.764.995-1.116a4.86 4.86 0 011.344-.852c.513-.224 1.093-.336 1.74-.336 1.2 0 2.089.364 2.665 1.092.575.728.864 1.78.864 3.156V50h-3.05zm11.93.3c-1.504 0-2.736-.272-3.696-.816-.96-.544-1.668-1.292-2.124-2.244-.456-.952-.684-2.04-.684-3.264 0-1.216.216-2.292.648-3.228.44-.944 1.084-1.68 1.932-2.208.848-.528 1.888-.792 3.12-.792 1.064 0 1.972.196 2.724.588a3.96 3.96 0 011.752 1.74c.408.768.612 1.736.612 2.904 0 .312-.008.592-.024.84a5.533 5.533 0 01-.072.732l-2.652-1.068a4.787 4.787 0 00.048-.672c0-.88-.22-1.568-.66-2.064-.44-.504-1.008-.756-1.704-.756-.528 0-.992.152-1.392.456-.4.296-.716.712-.948 1.248-.232.536-.348 1.156-.348 1.86v.468c0 .776.136 1.444.408 2.004.272.552.692.98 1.26 1.284.568.296 1.284.444 2.148.444.336 0 .712-.028 1.128-.084a9.52 9.52 0 001.284-.288 6.513 6.513 0 001.212-.492l.096 2.616c-.304.152-.66.288-1.068.408-.408.12-.864.212-1.368.276-.504.072-1.048.108-1.632.108zm-5.304-5.748v-1.908l7.692-.132 1.8.684v1.356h-9.492z" fill="url(#paint1_linear)"/><path d="M118.5 26.902c2 1.155 2 4.041 0 5.196l-24.75 14.29c-2 1.154-4.5-.29-4.5-2.599V15.211c0-2.31 2.5-3.753 4.5-2.598l24.75 14.289z" fill="#933FFF"/><path d="M126.5 26.902c2 1.155 2 4.041 0 5.196l-24.75 14.29c-2 1.154-4.5-.29-4.5-2.599V15.211c0-2.31 2.5-3.753 4.5-2.598l24.75 14.289z" fill="#2A59FF" fill-opacity=".75"/><path d="M110.5 30c0 .27-.275.463-.275.463l-7.704 4.773c-.562.368-1.021.096-1.021-.602v-9.267c0-.7.459-.97 1.022-.603l7.704 4.774s.274.194.274.463z" fill="#fff"/><defs><linearGradient id="paint0_linear" x1="57.5" y1="4" x2="61" y2="38" gradientUnits="userSpaceOnUse"><stop offset=".25" stop-color="#00FEFF"/><stop offset="1" stop-color="#8F11FF"/></linearGradient><linearGradient id="paint1_linear" x1="55" y1="41" x2="58" y2="71" gradientUnits="userSpaceOnUse"><stop stop-color="#00FEFF"/><stop offset="1" stop-color="#8F11FF"/></linearGradient></defs></svg>